<svg width="29" height="18" viewBox="0 0 29 18" fill="none" xmlns="http://www.w3.org/2000/svg">
<g opacity="0.85">
<path d="M0.706914 10.3496C0.961966 10.3496 1.17778 10.2621 1.35435 10.087C1.54074 9.90216 1.63884 9.68328 1.64865 9.43035V1.30264C1.61922 0.962166 1.45736 0.70924 1.16307 0.543864C1.01592 0.466041 0.863869 0.427128 0.706914 0.427128H0.515625V0.28121H4.65041C5.08204 0.28121 5.45971 0.247162 5.78343 0.179067C6.10715 0.110971 6.31806 0.0574666 6.41616 0.0185547V2.57214H6.2543V2.39704C6.26411 1.95928 6.13658 1.60908 5.87172 1.34642C5.61667 1.07404 5.26842 0.928119 4.82699 0.908663H3.85583V5.15491H6.19544C6.5584 5.14519 6.85759 5.02359 7.09303 4.79012C7.32846 4.54692 7.44618 4.25022 7.44618 3.90001V3.76868H7.57861V7.13942H7.44618V7.02268C7.44618 6.66275 7.32846 6.36604 7.09303 6.13257C6.85759 5.8991 6.5633 5.7775 6.21015 5.76778H3.85583V9.86811H6.72516C7.44127 9.86811 8.03966 9.66382 8.52034 9.25525C9.01082 8.84667 9.37378 8.26786 9.60921 7.51881H9.75636L9.06478 10.4956H0.515625V10.3496H0.706914Z" fill="white"/>
<path d="M19.5325 13.2189H19.7385V13.3648H14.7209V13.2189H14.9122C15.1182 13.2189 15.2849 13.1216 15.4125 12.9271C15.4713 12.82 15.5008 12.7179 15.5008 12.6206C15.5008 12.5233 15.4713 12.4261 15.4125 12.3288L13.3671 9.16234L10.5125 13.1897C9.35498 14.8045 8.08463 15.612 6.70146 15.612C6.49545 15.612 6.28454 15.5925 6.06873 15.5536V15.4077C6.93198 15.3299 7.67262 14.9651 8.29063 14.3133C8.58492 14.002 8.93807 13.5691 9.35008 13.0146L12.7933 8.28683L10.1005 4.15731C9.87489 3.81683 9.5757 3.56877 9.20293 3.41312C9.00674 3.3353 8.81054 3.29639 8.61435 3.29639H8.40834V3.15047H13.4113V3.29639H13.22C13.014 3.29639 12.8472 3.39367 12.7197 3.58823C12.6608 3.69524 12.6314 3.80224 12.6314 3.90925C12.6314 4.00653 12.6559 4.09895 12.705 4.1865L14.5149 6.94437L17.0752 3.20884C18.1935 1.58427 19.4492 0.771984 20.8421 0.771984C20.9599 0.771984 21.0825 0.776848 21.21 0.786576V0.932495C20.4056 0.951951 19.6012 1.50158 18.7968 2.58138C18.6791 2.7273 18.5614 2.88295 18.4437 3.04833C18.3358 3.2137 18.2671 3.31098 18.2377 3.34017L15.1035 7.84907L18.0464 12.3726C18.2131 12.6158 18.429 12.82 18.6938 12.9854C18.9685 13.1411 19.2481 13.2189 19.5325 13.2189Z" fill="white"/>
<path d="M23.3206 11.9548C23.4874 12.3439 23.8307 12.5384 24.3506 12.5384C24.9392 12.5384 25.4101 12.2466 25.7632 11.6629C26.0085 11.2641 26.1311 10.7582 26.1311 10.1454C26.1311 9.24065 25.8907 8.57915 25.4101 8.16085C25.0471 7.84956 24.5861 7.69391 24.0269 7.69391C23.8994 7.69391 23.7669 7.70364 23.6296 7.72309L22.6437 7.86901V16.4345C22.6437 16.6971 22.7369 16.916 22.9233 17.0911C23.1097 17.2662 23.3304 17.3538 23.5855 17.3538H23.7768V17.4997H19.3036V17.3538H19.4948C19.7499 17.3538 19.9657 17.2662 20.1423 17.0911C20.3287 16.916 20.4268 16.6971 20.4366 16.4345V8.65698C20.4268 8.40405 20.3483 8.20463 20.2011 8.05871C20.0638 7.91279 19.8578 7.83983 19.5831 7.83983C19.5145 7.83983 19.4262 7.84469 19.3183 7.85442L19.2888 7.72309C20.1227 7.655 20.9957 7.54313 21.908 7.38748C22.8301 7.2221 23.4334 7.11996 23.7179 7.08105C24.0122 7.04214 24.3065 7.02268 24.6008 7.02268C24.9049 7.02268 25.2678 7.05673 25.6896 7.12482C26.1115 7.18319 26.5431 7.32425 26.9845 7.54799C27.426 7.762 27.784 8.08303 28.0587 8.51106C28.3432 8.978 28.4854 9.50817 28.4854 10.1016C28.4854 10.6853 28.3775 11.2008 28.1617 11.6483C27.7497 12.5044 27.0434 13.0491 26.0428 13.2826C25.7976 13.341 25.5621 13.3702 25.3365 13.3702C25.1207 13.3702 24.9147 13.3507 24.7185 13.3118C24.3163 13.2534 23.9779 13.1172 23.7032 12.9032C23.4285 12.6892 23.2568 12.3925 23.1882 12.0131L23.3206 11.9548Z" fill="white"/>
</g>
</svg>
